<?xml version="1.0"?>
<svg xmlns="http://www.w3.org/2000/svg" xmlns:xlink="http://www.w3.org/1999/xlink" xmlns:svgjs="http://svgjs.com/svgjs" version="1.1" width="512" height="512" x="0" y="0" viewBox="0 0 512 512" style="enable-background:new 0 0 512 512" xml:space="preserve" class=""><g><path xmlns="http://www.w3.org/2000/svg" d="m416 512h-320c-53.023438 0-96-42.976562-96-96v-320c0-53.023438 42.976562-96 96-96h320c53.023438 0 96 42.976562 96 96v320c0 53.023438-42.976562 96-96 96zm0 0" fill="#eee2ff" data-original="#ffe6e2" class=""/><path xmlns="http://www.w3.org/2000/svg" d="m282.671875 240c0 14.730469-11.941406 26.671875-26.671875 26.671875s-26.671875-11.941406-26.671875-26.671875 11.941406-26.671875 26.671875-26.671875 26.671875 11.941406 26.671875 26.671875zm0 0" fill="#a57efd" data-original="#fd907e" class=""/><path xmlns="http://www.w3.org/2000/svg" d="m280 277.328125h-48c-16.175781 0-29.328125 13.152344-29.328125 29.328125v16c0 4.414062 3.585937 8 8 8h90.671875c4.417969 0 8-3.585938 8-8v-16c-.015625-16.160156-13.167969-29.328125-29.34375-29.328125zm0 0" fill="#a57efd" data-original="#fd907e" class=""/><path xmlns="http://www.w3.org/2000/svg" d="m352 138.671875h-192c-17.648438 0-32 14.351563-32 32v170.671875c0 17.648438 14.351562 32 32 32h192c17.648438 0 32-14.351562 32-32v-170.671875c0-17.648437-14.351562-32-32-32zm0 213.328125h-192c-5.886719 0-10.671875-4.785156-10.671875-10.671875v-149.328125h213.328125v149.328125c.015625 5.886719-4.769531 10.671875-10.65625 10.671875zm0 0" fill="#883bfc" data-original="#fc573b" class=""/></g></svg>
